<?xml version="1.0" standalone="no"?>
<!DOCTYPE svg PUBLIC "-//W3C//DTD SVG 20010904//EN"
 "http://www.w3.org/TR/2001/REC-SVG-20010904/DTD/svg10.dtd">
<svg version="1.0" xmlns="http://www.w3.org/2000/svg"
 width="175.000000pt" height="175.000000pt" viewBox="0 0 175.000000 175.000000"
 preserveAspectRatio="xMidYMid meet">
<metadata>
Created by potrace 1.16, written by Peter Selinger 2001-2019
</metadata>
<g transform="translate(0.000000,175.000000) scale(0.100000,-0.100000)"
fill="#000000" stroke="none">
<path d="M182 1638 c-35 -17 -44 -69 -40 -225 4 -196 -5 -188 213 -188 158 0
165 1 187 23 22 22 23 29 23 187 0 220 10 209 -203 212 -100 2 -165 -2 -180
-9z"/>
<path d="M713 1626 c-28 -24 -28 -26 -32 -151 -7 -250 -7 -250 221 -250 210 0
202 -7 206 188 4 161 -5 208 -43 225 -16 8 -83 12 -175 12 -143 0 -150 -1
-177 -24z"/>
<path d="M1273 1640 c-41 -17 -48 -46 -48 -205 0 -164 7 -189 53 -202 15 -5
94 -8 175 -8 l149 0 25 29 c24 28 24 30 21 192 -3 141 -5 166 -21 181 -15 16
-39 18 -175 20 -86 1 -167 -2 -179 -7z"/>
<path d="M190 1098 c-45 -24 -51 -51 -48 -215 4 -208 -6 -198 213 -198 221 0
210 -11 210 210 0 219 10 209 -198 213 -110 2 -159 -1 -177 -10z"/>
<path d="M735 1101 c-46 -20 -50 -35 -50 -207 0 -220 -11 -209 210 -209 158 0
165 1 187 23 22 22 23 29 23 187 0 219 10 209 -198 212 -83 1 -161 -1 -172 -6z"/>
<path d="M1273 1100 c-35 -14 -46 -49 -51 -157 -6 -126 4 -206 28 -235 17 -22
27 -23 161 -27 162 -3 210 6 227 44 16 34 16 305 1 339 -7 14 -25 30 -42 36
-36 12 -293 12 -324 0z"/>
<path d="M204 564 c-51 -11 -59 -36 -62 -188 -2 -85 1 -156 7 -178 16 -52 50
-60 228 -56 196 4 188 -5 188 213 0 219 9 209 -193 212 -81 1 -157 -1 -168 -3z"/>
<path d="M740 562 c-49 -15 -61 -61 -58 -224 4 -198 -2 -192 191 -196 178 -4
212 4 228 56 6 22 9 94 7 179 -4 193 2 187 -196 190 -81 1 -158 -1 -172 -5z"/>
<path d="M1273 556 c-43 -20 -48 -42 -48 -218 0 -202 -10 -193 215 -193 149 0
171 2 187 18 16 15 18 40 21 181 3 161 3 164 -21 192 l-25 29 -149 3 c-113 2
-156 -1 -180 -12z"/>
</g>
</svg>
