<?xml version="1.0" standalone="no"?>
<!DOCTYPE svg PUBLIC "-//W3C//DTD SVG 20010904//EN"
 "http://www.w3.org/TR/2001/REC-SVG-20010904/DTD/svg10.dtd">
<svg version="1.0" xmlns="http://www.w3.org/2000/svg"
 width="121.000000pt" height="116.000000pt" viewBox="0 0 121.000000 116.000000"
 preserveAspectRatio="xMidYMid meet">
<metadata>
Created by potrace 1.16, written by Peter Selinger 2001-2019
</metadata>
<g transform="translate(0.000000,116.000000) scale(0.100000,-0.100000)"
fill="#000000" stroke="none">
<path d="M182 1048 c-35 -17 -44 -69 -40 -225 4 -196 -5 -188 213 -188 221 0
210 -11 210 210 0 220 10 209 -203 212 -100 2 -165 -2 -180 -9z"/>
<path d="M713 1036 c-28 -24 -28 -26 -32 -151 -7 -250 -7 -250 221 -250 210 0
202 -7 206 188 4 161 -5 208 -43 225 -16 8 -83 12 -175 12 -143 0 -150 -1
-177 -24z"/>
<path d="M190 508 c-45 -24 -51 -51 -48 -215 4 -208 -6 -198 213 -198 158 0
165 1 187 23 22 22 23 29 23 187 0 219 10 209 -198 213 -110 2 -159 -1 -177
-10z"/>
<path d="M735 511 c-46 -20 -50 -35 -50 -207 0 -220 -11 -209 210 -209 221 0
210 -11 210 210 0 219 10 209 -198 212 -83 1 -161 -1 -172 -6z"/>
</g>
</svg>
